<?xml version="1.0" encoding="iso-8859-1"?>
<!-- Generator: Adobe Illustrator 19.0.0, SVG Export Plug-In . SVG Version: 6.00 Build 0)  -->
<svg version="1.1" id="Capa_1" xmlns="http://www.w3.org/2000/svg" xmlns:xlink="http://www.w3.org/1999/xlink" x="0px" y="0px"
	 viewBox="0 0 512 512" style="enable-background:new 0 0 512 512;" xml:space="preserve">
<polygon style="fill:#F2F2F2;" points="113.067,197.333 256,54.4 398.933,197.333 428.8,197.333 273.067,41.6 238.933,41.6 
	83.2,197.333 "/>
<circle style="fill:#84DBFF;" cx="256" cy="49.067" r="49.067"/>
<circle style="fill:#54C0EB;" cx="256" cy="49.067" r="22.4"/>
<path style="fill:#40596B;" d="M480,182.4H32c-18.133,0-32,13.867-32,32V480c0,18.133,13.867,32,32,32h448c18.133,0,32-13.867,32-32
	V214.4C512,197.333,498.133,182.4,480,182.4z"/>
<rect x="42.667" y="225.067" style="fill:#FFFFFF;" width="346" height="220"/>
<g>
	<path style="fill:#FF7058;" d="M130.133,289.067c0,10.667-4.267,17.067-12.8,20.267L134.4,332.8h-18.133l-14.933-21.333H90.667
		V332.8H76.8v-66.133h24.533c10.667,0,17.067,2.133,21.333,5.333C126.933,275.2,130.133,281.6,130.133,289.067z M112,296.533
		c2.133-2.133,3.2-4.267,3.2-7.467c0-3.2-1.067-6.4-3.2-7.467c-2.133-1.067-5.333-2.133-9.6-2.133H91.733v19.2H102.4
		C106.667,298.667,109.867,298.667,112,296.533z"/>
	<path style="fill:#FF7058;" d="M199.467,323.2c-6.4,6.4-14.933,9.6-24.533,9.6c-9.6,0-18.133-3.2-24.533-9.6
		c-6.4-6.4-9.6-14.933-9.6-24.533c0-9.6,3.2-18.133,9.6-24.533c6.4-6.4,14.933-9.6,24.533-9.6s18.133,3.2,24.533,9.6
		c6.4,6.4,9.6,14.933,9.6,24.533C209.067,309.333,205.867,316.8,199.467,323.2z M194.133,299.733c0-5.333-2.133-10.667-5.333-14.933
		c-4.267-4.267-8.533-6.4-13.867-6.4c-5.333,0-9.6,2.133-13.867,6.4c-4.267,4.267-5.333,9.6-5.333,14.933
		c0,5.333,2.133,10.667,5.333,14.933c4.267,4.267,8.533,6.4,13.867,6.4c5.333,0,9.6-2.133,13.867-6.4
		C192,310.4,194.133,305.067,194.133,299.733z"/>
	<path style="fill:#FF7058;" d="M276.267,323.2c-6.4,6.4-14.933,9.6-24.533,9.6c-9.6,0-18.133-3.2-24.533-9.6
		c-6.4-6.4-9.6-14.933-9.6-24.533c0-9.6,3.2-18.133,9.6-24.533c6.4-6.4,14.933-9.6,24.533-9.6c9.6,0,18.133,3.2,24.533,9.6
		c6.4,6.4,9.6,14.933,9.6,24.533C286.933,309.333,282.667,316.8,276.267,323.2z M272,299.733c0-5.333-2.133-10.667-5.333-14.933
		c-4.267-4.267-8.533-6.4-13.867-6.4s-9.6,2.133-13.867,6.4s-5.333,9.6-5.333,14.933c0,5.333,2.133,10.667,5.333,14.933
		c4.267,4.267,8.533,6.4,13.867,6.4s9.6-2.133,13.867-6.4C269.867,310.4,272,305.067,272,299.733z"/>
	<path style="fill:#FF7058;" d="M357.333,291.2L339.2,327.467h-8.533L312.533,291.2v41.6h-13.867v-66.133h20.267L336,302.933
		l16-36.267h19.2v65.067h-14.933V291.2H357.333z"/>
	<path style="fill:#FF7058;" d="M403.2,280.533c-1.067,1.067-2.133,3.2-2.133,4.267c0,2.133,1.067,3.2,2.133,4.267
		c2.133,1.067,5.333,2.133,11.733,4.267c6.4,1.067,10.667,4.267,14.933,6.4c3.2,3.2,5.333,7.467,5.333,13.867
		c0,6.4-2.133,10.667-6.4,13.867c-4.267,3.2-10.667,5.333-17.067,5.333c-10.667,0-19.2-4.267-27.733-11.733l8.533-10.667
		c7.467,6.4,13.867,9.6,19.2,9.6c3.2,0,4.267-1.067,6.4-2.133c1.067-1.067,2.133-3.2,2.133-4.267c0-1.067-1.067-3.2-2.133-4.267
		c-2.133-1.067-5.333-2.133-9.6-3.2c-7.467-2.133-12.8-4.267-17.067-7.467c-3.2-3.2-5.333-7.467-5.333-13.867
		c0-6.4,2.133-10.667,6.4-13.867c4.267-3.2,9.6-5.333,17.067-5.333c4.267,0,8.533,1.067,12.8,2.133
		c4.267,1.067,8.533,3.2,11.733,6.4l-7.467,10.667c-5.333-4.267-11.733-6.4-18.133-6.4C406.4,278.4,405.333,279.467,403.2,280.533z"
		/>
</g>
<g>
	<path style="fill:#FFD15C;" d="M114.133,428.8l-4.267-9.6H91.733l-4.267,9.6H76.8L96,384h9.6l19.2,44.8H114.133z M100.267,397.867
		l-5.333,12.8h11.733L100.267,397.867z"/>
	<path style="fill:#FFD15C;" d="M144,412.8l11.733-28.8H166.4l-18.133,44.8h-8.533L121.6,384h10.667L144,412.8z"/>
	<path style="fill:#FFD15C;" d="M200.533,428.8l-4.267-9.6h-19.2l-4.267,9.6h-10.667l19.2-44.8H192l19.2,44.8H200.533z
		 M186.667,397.867l-5.333,12.8h11.733L186.667,397.867z"/>
	<path style="fill:#FFD15C;" d="M216.533,384h9.6v44.8h-9.6V384z"/>
	<path style="fill:#FFD15C;" d="M237.867,428.8V384h9.6v36.267h19.2v8.533H237.867z"/>
	<path style="fill:#FFD15C;" d="M306.133,428.8l-4.267-9.6h-19.2l-4.267,9.6h-10.667L288,384h9.6l19.2,44.8H306.133z
		 M292.267,397.867l-5.333,12.8h11.733L292.267,397.867z"/>
	<path style="fill:#FFD15C;" d="M341.333,428.8h-19.2V384H339.2c3.2,0,5.333,0,7.467,1.067c2.133,1.067,4.267,2.133,5.333,3.2
		c2.133,2.133,3.2,5.333,3.2,7.467c0,3.2-1.067,6.4-3.2,7.467c-1.067,1.067-1.067,1.067-2.133,1.067c0,0-1.067,0-2.133,1.067
		c3.2,1.067,5.333,2.133,6.4,4.267c2.133,2.133,2.133,4.267,2.133,7.467c0,3.2-1.067,6.4-3.2,8.533
		C352,427.733,347.733,428.8,341.333,428.8z M331.733,402.133H336c3.2,0,5.333,0,6.4-1.067s2.133-2.133,2.133-4.267
		s-1.067-3.2-2.133-4.267c-1.067-1.067-3.2-1.067-6.4-1.067h-5.333v10.667H331.733z M331.733,421.333h6.4c3.2,0,5.333,0,6.4-1.067
		s2.133-2.133,2.133-4.267c0-2.133-1.067-3.2-2.133-4.267c-1.067-1.067-4.267-1.067-7.467-1.067h-6.4v10.667H331.733z"/>
	<path style="fill:#FFD15C;" d="M365.867,428.8V384h9.6v36.267h19.2v8.533H365.867z"/>
	<path style="fill:#FFD15C;" d="M435.2,384v8.533h-22.4v9.6h20.267v8.533H412.8v9.6h23.467v8.533H403.2V384H435.2z"/>
</g>
<g>
</g>
<g>
</g>
<g>
</g>
<g>
</g>
<g>
</g>
<g>
</g>
<g>
</g>
<g>
</g>
<g>
</g>
<g>
</g>
<g>
</g>
<g>
</g>
<g>
</g>
<g>
</g>
<g>
</g>
</svg>
